{"title":"Lone Survivor 2013 DVDSCR x264 AC3-MiLLENiUM","uid":9416103,"size":1628927517,"categoryP":"video","categoryS":"movies","magnet":"?xt=urn:btih:f612e449b3380fe1890c4dd342cb9baebcd84add&amp;dn=Lone+Survivor+2013+DVDSCR+x264+AC3-MiLLENiUM&amp;tr=udp%3A%2F%2Ftracker.openbittorrent.com%3A80&amp;tr=udp%3A%2F%2Fopen.demonii.com%3A1337&amp;tr=udp%3A%2F%2Ftracker.coppersurfer.tk%3A6969&amp;tr=udp%3A%2F%2Fexodus.desync.com%3A6969","seeders":1,"leechers":0,"uploader":"xxxlavalxxx","files":-1,"time":1388446961,"description":"\n &lt;a href=&quot;\nhttp://www.imdb.com/title/tt1091191/&quot; rel=&quot;nofollow&quot; target=&quot;_NEW&quot;&gt;\nhttp://www.imdb.com/title/tt1091191/&lt;/a&gt;\n\n\nBased on the failed June 28, 2005 mission &quot;Operation Red Wings&quot;. Four members of SEAL Team 10 were tasked with the mission to capture or kill notorious Taliban leader Ahmad Shahd.\n\nDirector: Peter Berg\nWriters: Peter Berg, Marcus Luttrell (book)\nStars: Mark Wahlberg, Taylor Kitsch, Emile Hirsch\nGenres: Action | Biography | Drama | Thriller | War\nCountry: USA\nLanguage: English\n\n\nLone Survivor 2013 DVDSCR x264 AC3-MiLLENiUM                  \n\nGeneral\n\nSource...............: DVDSCR-Manhattan - Passed by a friend [THANKS]\nIMDb Information.... : http://www.imdb.com/title/tt1091191/\nSample Included......: yes\n\nGeneral\nComplete name                            : Lone Survivor 2013 DVDSCR x264 AC3-MiLLENiUM.mkv\nFormat                                   : Matroska\nFormat version                           : Version 2\nFile size                                : 1.51 GiB\nDuration                                 : 2h 0mn\nOverall bit rate mode                    : Variable\nOverall bit rate                         : 1 786 Kbps\nEncoded date                             : UTC 2013-12-30 21:28:33\nWriting application                      : mkvmerge v6.6.0 ('The Edge Of The In Between') built on Dec  1 2013 17:55:00\nWriting library                          : libebml v1.3.0 + libmatroska v1.4.1\n\nVideo\nID                                       : 1\nFormat                                   : AVC\nFormat/Info                              : Advanced Video Codec\nFormat profile                           : &lt;a class=&quot;__cf_email__&quot; href=&quot;/cdn-cgi/l/email-protection&quot; data-cfemail=&quot;e1a9888689a1add5cfd0&quot;&gt;[email&amp;#160;protected]&lt;/a&gt;&lt;script cf-hash='f9e31' type=&quot;text/javascript&quot;&gt;\n/* &lt;![CDATA[ */!function(){try{var t=&quot;currentScript&quot;in document?document.currentScript:function(){for(var t=document.getElementsByTagName(&quot;script&quot;),e=t.length;e--;)if(t[e].getAttribute(&quot;cf-hash&quot;))return t[e]}();if(t&amp;&amp;t.previousSibling){var e,r,n,i,c=t.previousSibling,a=c.getAttribute(&quot;data-cfemail&quot;);if(a){for(e=&quot;&quot;,r=parseInt(a.substr(0,2),16),n=2;a.length-n;n+=2)i=parseInt(a.substr(n,2),16)^r,e+=String.fromCharCode(i);e=document.createTextNode(e),c.parentNode.replaceChild(e,c)}}}catch(u){}}();/* ]]&gt; */&lt;/script&gt;\nFormat settings, CABAC                   : Yes\nFormat settings, ReFrames                : 3 frames\nCodec ID                                 : V_MPEG4/ISO/AVC\nDuration                                 : 2h 0mn\nBit rate mode                            : Variable\nBit rate                                 : 1 303 Kbps\nMaximum bit rate                         : 40.0 Mbps\nWidth                                    : 720 pixels\nHeight                                   : 304 pixels\nDisplay aspect ratio                     : 2.35:1\nFrame rate mode                          : Constant\nFrame rate                               : 23.976 fps\nColor space                              : YUV\nChroma subsampling                       : 4:2:0\nBit depth                                : 8 bits\nScan type                                : Progressive\nBits/(Pixel*Frame)                       : 0.248\nStream size                              : 1.10 GiB (73%)\nWriting library                          : x264 core 140 r2377 1ca7bb9\n\nAudio\nID                                       : 2\nFormat                                   : AC-3\nFormat/Info                              : Audio Coding 3\nMode extension                           : CM (complete main)\nFormat settings, Endianness              : Big\nCodec ID                                 : A_AC3\nDuration                                 : 2h 0mn\nBit rate mode                            : Constant\nBit rate                                 : 448 Kbps\nChannel(s)                               : 6 channels\nChannel positions                        : Front: L C R, Side: L R, LFE\nSampling rate                            : 48.0 KHz\nBit depth                                : 16 bits\nCompression mode                         : Lossy\nStream size                              : 387 MiB (25%)\nLanguage                                 : English\nDefault                                  : Yes\nForced                                   : No\n\n\nscreens\n &lt;a href=&quot;\nhttp://i.imgur.com/j60Vybr.png&quot; rel=&quot;nofollow&quot; target=&quot;_NEW&quot;&gt;\nhttp://i.imgur.com/j60Vybr.png&lt;/a&gt; &lt;a href=&quot;\nhttp://i.imgur.com/OJQycbg.png&quot; rel=&quot;nofollow&quot; target=&quot;_NEW&quot;&gt;\nhttp://i.imgur.com/OJQycbg.png&lt;/a&gt; &lt;a href=&quot;\nhttp://i.imgur.com/faHSl4t.png&quot; rel=&quot;nofollow&quot; target=&quot;_NEW&quot;&gt;\nhttp://i.imgur.com/faHSl4t.png&lt;/a&gt; &lt;a href=&quot;\nhttp://i.imgur.com/BA4sAXu.png&quot; rel=&quot;nofollow&quot; target=&quot;_NEW&quot;&gt;\nhttp://i.imgur.com/BA4sAXu.png&lt;/a&gt;","torrent":{"xt":"urn:btih:f612e449b3380fe1890c4dd342cb9baebcd84add","amp;dn":"Lone+Survivor+2013+DVDSCR+x264+AC3-MiLLENiUM","amp;tr":["udp%3A%2F%2Ftracker.openbittorrent.com%3A80","udp%3A%2F%2Fopen.demonii.com%3A1337","udp%3A%2F%2Ftracker.coppersurfer.tk%3A6969","udp%3A%2F%2Fexodus.desync.com%3A6969"],"infoHash":"f612e449b3380fe1890c4dd342cb9baebcd84add","infoHashBuffer":{"type":"Buffer","data":[246,18,228,73,179,56,15,225,137,12,77,211,66,203,155,174,188,216,74,221]},"announce":[],"urlList":[]}}